<?xml version="1.0" encoding="UTF-8" standalone="no"?>
<!DOCTYPE svg PUBLIC "-//W3C//DTD SVG 1.1//EN"
 "http://www.w3.org/Graphics/SVG/1.1/DTD/svg11.dtd">
<!-- Generated by graphviz version 5.0.0 (20220707.1540)
 -->
<!-- Title: dependencies Pages: 1 -->
<svg width="178pt" height="174pt"
 viewBox="0.00 0.00 178.00 173.80" xmlns="http://www.w3.org/2000/svg" xmlns:xlink="http://www.w3.org/1999/xlink">
<g id="graph0" class="graph" transform="scale(1 1) rotate(0) translate(4 169.8)">
<title>dependencies</title>
<polygon fill="white" stroke="transparent" points="-4,4 -4,-169.8 174,-169.8 174,4 -4,4"/>
<text text-anchor="middle" x="85" y="-8.2" font-family="sans-serif" font-size="14.00">dependencies</text>
<g id="clust1" class="cluster">
<title>cluster_EventsModule</title>
<polygon fill="none" stroke="black" stroke-dasharray="1,5" points="8,-32.8 8,-157.8 162,-157.8 162,-32.8 8,-32.8"/>
</g>
<g id="clust4" class="cluster">
<title>cluster_EventsModule_exports</title>
<polygon fill="none" stroke="black" points="16,-97.8 16,-149.8 154,-149.8 154,-97.8 16,-97.8"/>
</g>
<!-- ChannelsGateway  -->
<g id="node1" class="node">
<title>ChannelsGateway </title>
<polygon fill="#fb8072" stroke="black" points="145.86,-141.8 24.14,-141.8 24.14,-105.8 145.86,-105.8 145.86,-141.8"/>
<text text-anchor="middle" x="85" y="-119.6" font-family="Times,serif" font-size="14.00">ChannelsGateway </text>
</g>
<!-- EventsModule -->
<g id="node2" class="node">
<title>EventsModule</title>
<polygon fill="#8dd3c7" stroke="black" points="133.66,-76.8 130.66,-80.8 109.66,-80.8 106.66,-76.8 36.34,-76.8 36.34,-40.8 133.66,-40.8 133.66,-76.8"/>
<text text-anchor="middle" x="85" y="-54.6" font-family="Times,serif" font-size="14.00">EventsModule</text>
</g>
<!-- EventsModule&#45;&gt;ChannelsGateway  -->
<g id="edge1" class="edge">
<title>EventsModule&#45;&gt;ChannelsGateway </title>
<path fill="none" stroke="black" stroke-dasharray="5,2" d="M85,-76.91C85,-76.91 85,-95.79 85,-95.79"/>
<polygon fill="black" stroke="black" points="81.5,-95.79 85,-105.79 88.5,-95.79 81.5,-95.79"/>
</g>
</g>
</svg>
