<?xml version="1.0" encoding="UTF-8" standalone="no"?>
<!DOCTYPE svg PUBLIC "-//W3C//DTD SVG 1.1//EN"
 "http://www.w3.org/Graphics/SVG/1.1/DTD/svg11.dtd">
<!-- Generated by graphviz version 5.0.0 (20220707.1540)
 -->
<!-- Title: dependencies Pages: 1 -->
<svg width="330pt" height="174pt"
 viewBox="0.00 0.00 330.00 173.80" xmlns="http://www.w3.org/2000/svg" xmlns:xlink="http://www.w3.org/1999/xlink">
<g id="graph0" class="graph" transform="scale(1 1) rotate(0) translate(4 169.8)">
<title>dependencies</title>
<polygon fill="white" stroke="transparent" points="-4,4 -4,-169.8 326,-169.8 326,4 -4,4"/>
<text text-anchor="middle" x="161" y="-8.2" font-family="sans-serif" font-size="14.00">dependencies</text>
<g id="clust1" class="cluster">
<title>cluster_GameModule</title>
<polygon fill="none" stroke="black" stroke-dasharray="1,5" points="8,-32.8 8,-157.8 314,-157.8 314,-32.8 8,-32.8"/>
</g>
<g id="clust6" class="cluster">
<title>cluster_GameModule_providers</title>
<polygon fill="none" stroke="black" points="16,-40.8 16,-92.8 306,-92.8 306,-40.8 16,-40.8"/>
</g>
<!-- GameService -->
<g id="node1" class="node">
<title>GameService</title>
<ellipse fill="#fdb462" stroke="black" cx="235" cy="-66.8" rx="63.1" ry="18"/>
<text text-anchor="middle" x="235" y="-62.6" font-family="Times,serif" font-size="14.00">GameService</text>
</g>
<!-- GameModule -->
<g id="node3" class="node">
<title>GameModule</title>
<polygon fill="#8dd3c7" stroke="black" points="208.48,-149.8 205.48,-153.8 184.48,-153.8 181.48,-149.8 115.52,-149.8 115.52,-113.8 208.48,-113.8 208.48,-149.8"/>
<text text-anchor="middle" x="162" y="-127.6" font-family="Times,serif" font-size="14.00">GameModule</text>
</g>
<!-- GameService&#45;&gt;GameModule -->
<g id="edge1" class="edge">
<title>GameService&#45;&gt;GameModule</title>
<path fill="none" stroke="black" d="M190.22,-79.64C190.22,-79.64 190.22,-103.32 190.22,-103.32"/>
<polygon fill="black" stroke="black" points="186.72,-103.32 190.22,-113.32 193.72,-103.32 186.72,-103.32"/>
</g>
<!-- LobbyService -->
<g id="node2" class="node">
<title>LobbyService</title>
<ellipse fill="#fdb462" stroke="black" cx="89" cy="-66.8" rx="65.41" ry="18"/>
<text text-anchor="middle" x="89" y="-62.6" font-family="Times,serif" font-size="14.00">LobbyService</text>
</g>
<!-- LobbyService&#45;&gt;GameModule -->
<g id="edge2" class="edge">
<title>LobbyService&#45;&gt;GameModule</title>
<path fill="none" stroke="black" d="M134.86,-79.64C134.86,-79.64 134.86,-103.32 134.86,-103.32"/>
<polygon fill="black" stroke="black" points="131.36,-103.32 134.86,-113.32 138.36,-103.32 131.36,-103.32"/>
</g>
</g>
</svg>
