<?xml version="1.0" encoding="UTF-8" standalone="no"?>
<!DOCTYPE svg PUBLIC "-//W3C//DTD SVG 1.1//EN"
 "http://www.w3.org/Graphics/SVG/1.1/DTD/svg11.dtd">
<!-- Generated by graphviz version 5.0.0 (20220707.1540)
 -->
<!-- Title: dependencies Pages: 1 -->
<svg width="1242pt" height="247pt"
 viewBox="0.00 0.00 1242.00 246.80" xmlns="http://www.w3.org/2000/svg" xmlns:xlink="http://www.w3.org/1999/xlink">
<g id="graph0" class="graph" transform="scale(1 1) rotate(0) translate(4 242.8)">
<title>dependencies</title>
<polygon fill="white" stroke="transparent" points="-4,4 -4,-242.8 1238,-242.8 1238,4 -4,4"/>
<text text-anchor="middle" x="617" y="-8.2" font-family="sans-serif" font-size="14.00">dependencies</text>
<g id="clust1" class="cluster">
<title>cluster_AuthModule</title>
<polygon fill="none" stroke="black" stroke-dasharray="1,5" points="8,-32.8 8,-230.8 1226,-230.8 1226,-32.8 8,-32.8"/>
</g>
<g id="clust3" class="cluster">
<title>cluster_AuthModule_imports</title>
<polygon fill="none" stroke="black" points="1110,-40.8 1110,-92.8 1218,-92.8 1218,-40.8 1110,-40.8"/>
</g>
<g id="clust6" class="cluster">
<title>cluster_AuthModule_providers</title>
<polygon fill="none" stroke="black" points="16,-40.8 16,-92.8 1102,-92.8 1102,-40.8 16,-40.8"/>
</g>
<g id="clust4" class="cluster">
<title>cluster_AuthModule_exports</title>
<polygon fill="none" stroke="black" points="627,-170.8 627,-222.8 733,-222.8 733,-170.8 627,-170.8"/>
</g>
<!-- UsersModule -->
<g id="node1" class="node">
<title>UsersModule</title>
<polygon fill="#8dd3c7" stroke="black" points="1209.94,-84.8 1206.94,-88.8 1185.94,-88.8 1182.94,-84.8 1118.06,-84.8 1118.06,-48.8 1209.94,-48.8 1209.94,-84.8"/>
<text text-anchor="middle" x="1164" y="-62.6" font-family="Times,serif" font-size="14.00">UsersModule</text>
</g>
<!-- AuthModule -->
<g id="node2" class="node">
<title>AuthModule</title>
<polygon fill="#8dd3c7" stroke="black" points="723.55,-149.8 720.55,-153.8 699.55,-153.8 696.55,-149.8 636.45,-149.8 636.45,-113.8 723.55,-113.8 723.55,-149.8"/>
<text text-anchor="middle" x="680" y="-127.6" font-family="Times,serif" font-size="14.00">AuthModule</text>
</g>
<!-- UsersModule&#45;&gt;AuthModule -->
<g id="edge1" class="edge">
<title>UsersModule&#45;&gt;AuthModule</title>
<path fill="none" stroke="black" d="M1164,-85.09C1164,-107.01 1164,-140.8 1164,-140.8 1164,-140.8 733.81,-140.8 733.81,-140.8"/>
<polygon fill="black" stroke="black" points="733.81,-137.3 723.81,-140.8 733.81,-144.3 733.81,-137.3"/>
</g>
<!-- AuthService  -->
<g id="node3" class="node">
<title>AuthService </title>
<polygon fill="#fb8072" stroke="black" points="724.98,-214.8 635.02,-214.8 635.02,-178.8 724.98,-178.8 724.98,-214.8"/>
<text text-anchor="middle" x="680" y="-192.6" font-family="Times,serif" font-size="14.00">AuthService </text>
</g>
<!-- AuthModule&#45;&gt;AuthService  -->
<g id="edge2" class="edge">
<title>AuthModule&#45;&gt;AuthService </title>
<path fill="none" stroke="black" stroke-dasharray="5,2" d="M680,-149.91C680,-149.91 680,-168.79 680,-168.79"/>
<polygon fill="black" stroke="black" points="676.5,-168.79 680,-178.79 683.5,-168.79 676.5,-168.79"/>
</g>
<!-- AuthService -->
<g id="node4" class="node">
<title>AuthService</title>
<ellipse fill="#fdb462" stroke="black" cx="1035" cy="-66.8" rx="59.11" ry="18"/>
<text text-anchor="middle" x="1035" y="-62.6" font-family="Times,serif" font-size="14.00">AuthService</text>
</g>
<!-- AuthService&#45;&gt;AuthModule -->
<g id="edge3" class="edge">
<title>AuthService&#45;&gt;AuthModule</title>
<path fill="none" stroke="black" d="M1035,-84.91C1035,-104.14 1035,-131.8 1035,-131.8 1035,-131.8 733.89,-131.8 733.89,-131.8"/>
<polygon fill="black" stroke="black" points="733.89,-128.3 723.89,-131.8 733.89,-135.3 733.89,-128.3"/>
</g>
<!-- FourtyTwoStrategy -->
<g id="node5" class="node">
<title>FourtyTwoStrategy</title>
<ellipse fill="#fdb462" stroke="black" cx="871" cy="-66.8" rx="86.85" ry="18"/>
<text text-anchor="middle" x="871" y="-62.6" font-family="Times,serif" font-size="14.00">FourtyTwoStrategy</text>
</g>
<!-- FourtyTwoStrategy&#45;&gt;AuthModule -->
<g id="edge4" class="edge">
<title>FourtyTwoStrategy&#45;&gt;AuthModule</title>
<path fill="none" stroke="black" d="M871,-84.83C871,-101.2 871,-122.8 871,-122.8 871,-122.8 733.82,-122.8 733.82,-122.8"/>
<polygon fill="black" stroke="black" points="733.82,-119.3 723.82,-122.8 733.82,-126.3 733.82,-119.3"/>
</g>
<!-- JwtRefreshStrategy -->
<g id="node6" class="node">
<title>JwtRefreshStrategy</title>
<ellipse fill="#fdb462" stroke="black" cx="680" cy="-66.8" rx="86.83" ry="18"/>
<text text-anchor="middle" x="680" y="-62.6" font-family="Times,serif" font-size="14.00">JwtRefreshStrategy</text>
</g>
<!-- JwtRefreshStrategy&#45;&gt;AuthModule -->
<g id="edge5" class="edge">
<title>JwtRefreshStrategy&#45;&gt;AuthModule</title>
<path fill="none" stroke="black" d="M680,-84.91C680,-84.91 680,-103.79 680,-103.79"/>
<polygon fill="black" stroke="black" points="676.5,-103.79 680,-113.79 683.5,-103.79 676.5,-103.79"/>
</g>
<!-- JwtStrategy -->
<g id="node7" class="node">
<title>JwtStrategy</title>
<ellipse fill="#fdb462" stroke="black" cx="519" cy="-66.8" rx="56.77" ry="18"/>
<text text-anchor="middle" x="519" y="-62.6" font-family="Times,serif" font-size="14.00">JwtStrategy</text>
</g>
<!-- JwtStrategy&#45;&gt;AuthModule -->
<g id="edge6" class="edge">
<title>JwtStrategy&#45;&gt;AuthModule</title>
<path fill="none" stroke="black" d="M519,-84.83C519,-101.2 519,-122.8 519,-122.8 519,-122.8 626.43,-122.8 626.43,-122.8"/>
<polygon fill="black" stroke="black" points="626.43,-126.3 636.43,-122.8 626.43,-119.3 626.43,-126.3"/>
</g>
<!-- JwtTwoFactorStrategy -->
<g id="node8" class="node">
<title>JwtTwoFactorStrategy</title>
<ellipse fill="#fdb462" stroke="black" cx="345" cy="-66.8" rx="99.01" ry="18"/>
<text text-anchor="middle" x="345" y="-62.6" font-family="Times,serif" font-size="14.00">JwtTwoFactorStrategy</text>
</g>
<!-- JwtTwoFactorStrategy&#45;&gt;AuthModule -->
<g id="edge7" class="edge">
<title>JwtTwoFactorStrategy&#45;&gt;AuthModule</title>
<path fill="none" stroke="black" d="M345,-84.91C345,-104.14 345,-131.8 345,-131.8 345,-131.8 626.2,-131.8 626.2,-131.8"/>
<polygon fill="black" stroke="black" points="626.2,-135.3 636.2,-131.8 626.2,-128.3 626.2,-135.3"/>
</g>
<!-- TwoFactorAuthService -->
<g id="node9" class="node">
<title>TwoFactorAuthService</title>
<ellipse fill="#fdb462" stroke="black" cx="126" cy="-66.8" rx="101.86" ry="18"/>
<text text-anchor="middle" x="126" y="-62.6" font-family="Times,serif" font-size="14.00">TwoFactorAuthService</text>
</g>
<!-- TwoFactorAuthService&#45;&gt;AuthModule -->
<g id="edge8" class="edge">
<title>TwoFactorAuthService&#45;&gt;AuthModule</title>
<path fill="none" stroke="black" d="M126,-85.09C126,-107.01 126,-140.8 126,-140.8 126,-140.8 626.07,-140.8 626.07,-140.8"/>
<polygon fill="black" stroke="black" points="626.07,-144.3 636.07,-140.8 626.07,-137.3 626.07,-144.3"/>
</g>
</g>
</svg>
