<?xml version="1.0" encoding="UTF-8" standalone="no"?>
<!DOCTYPE svg PUBLIC "-//W3C//DTD SVG 1.1//EN"
 "http://www.w3.org/Graphics/SVG/1.1/DTD/svg11.dtd">
<!-- Generated by graphviz version 5.0.0 (20220707.1540)
 -->
<!-- Title: dependencies Pages: 1 -->
<svg width="1051pt" height="174pt"
 viewBox="0.00 0.00 1051.00 173.80" xmlns="http://www.w3.org/2000/svg" xmlns:xlink="http://www.w3.org/1999/xlink">
<g id="graph0" class="graph" transform="scale(1 1) rotate(0) translate(4 169.8)">
<title>dependencies</title>
<polygon fill="white" stroke="transparent" points="-4,4 -4,-169.8 1047,-169.8 1047,4 -4,4"/>
<text text-anchor="middle" x="521.5" y="-8.2" font-family="sans-serif" font-size="14.00">dependencies</text>
<g id="clust1" class="cluster">
<title>cluster_AuthModule</title>
<polygon fill="none" stroke="black" stroke-dasharray="1,5" points="8,-32.8 8,-157.8 1035,-157.8 1035,-32.8 8,-32.8"/>
</g>
<g id="clust3" class="cluster">
<title>cluster_AuthModule_imports</title>
<polygon fill="none" stroke="black" points="919,-40.8 919,-92.8 1027,-92.8 1027,-40.8 919,-40.8"/>
</g>
<g id="clust6" class="cluster">
<title>cluster_AuthModule_providers</title>
<polygon fill="none" stroke="black" points="16,-40.8 16,-92.8 911,-92.8 911,-40.8 16,-40.8"/>
</g>
<!-- UsersModule -->
<g id="node1" class="node">
<title>UsersModule</title>
<polygon fill="#8dd3c7" stroke="black" points="1018.94,-84.8 1015.94,-88.8 994.94,-88.8 991.94,-84.8 927.06,-84.8 927.06,-48.8 1018.94,-48.8 1018.94,-84.8"/>
<text text-anchor="middle" x="973" y="-62.6" font-family="Times,serif" font-size="14.00">UsersModule</text>
</g>
<!-- AuthModule -->
<g id="node2" class="node">
<title>AuthModule</title>
<polygon fill="#8dd3c7" stroke="black" points="642.55,-149.8 639.55,-153.8 618.55,-153.8 615.55,-149.8 555.45,-149.8 555.45,-113.8 642.55,-113.8 642.55,-149.8"/>
<text text-anchor="middle" x="599" y="-127.6" font-family="Times,serif" font-size="14.00">AuthModule</text>
</g>
<!-- UsersModule&#45;&gt;AuthModule -->
<g id="edge1" class="edge">
<title>UsersModule&#45;&gt;AuthModule</title>
<path fill="none" stroke="black" d="M973,-85.08C973,-106.12 973,-137.8 973,-137.8 973,-137.8 652.63,-137.8 652.63,-137.8"/>
<polygon fill="black" stroke="black" points="652.63,-134.3 642.63,-137.8 652.63,-141.3 652.63,-134.3"/>
</g>
<!-- AuthService -->
<g id="node3" class="node">
<title>AuthService</title>
<ellipse fill="#fdb462" stroke="black" cx="844" cy="-66.8" rx="59.11" ry="18"/>
<text text-anchor="middle" x="844" y="-62.6" font-family="Times,serif" font-size="14.00">AuthService</text>
</g>
<!-- AuthService&#45;&gt;AuthModule -->
<g id="edge2" class="edge">
<title>AuthService&#45;&gt;AuthModule</title>
<path fill="none" stroke="black" d="M844,-84.82C844,-102.17 844,-125.8 844,-125.8 844,-125.8 652.8,-125.8 652.8,-125.8"/>
<polygon fill="black" stroke="black" points="652.8,-122.3 642.8,-125.8 652.8,-129.3 652.8,-122.3"/>
</g>
<!-- JwtRefreshStrategy -->
<g id="node4" class="node">
<title>JwtRefreshStrategy</title>
<ellipse fill="#fdb462" stroke="black" cx="680" cy="-66.8" rx="86.83" ry="18"/>
<text text-anchor="middle" x="680" y="-62.6" font-family="Times,serif" font-size="14.00">JwtRefreshStrategy</text>
</g>
<!-- JwtRefreshStrategy&#45;&gt;AuthModule -->
<g id="edge3" class="edge">
<title>JwtRefreshStrategy&#45;&gt;AuthModule</title>
<path fill="none" stroke="black" d="M618.06,-79.64C618.06,-79.64 618.06,-103.32 618.06,-103.32"/>
<polygon fill="black" stroke="black" points="614.56,-103.32 618.06,-113.32 621.56,-103.32 614.56,-103.32"/>
</g>
<!-- JwtStrategy -->
<g id="node5" class="node">
<title>JwtStrategy</title>
<ellipse fill="#fdb462" stroke="black" cx="519" cy="-66.8" rx="56.77" ry="18"/>
<text text-anchor="middle" x="519" y="-62.6" font-family="Times,serif" font-size="14.00">JwtStrategy</text>
</g>
<!-- JwtStrategy&#45;&gt;AuthModule -->
<g id="edge4" class="edge">
<title>JwtStrategy&#45;&gt;AuthModule</title>
<path fill="none" stroke="black" d="M565.43,-77.24C565.43,-77.24 565.43,-103.77 565.43,-103.77"/>
<polygon fill="black" stroke="black" points="561.93,-103.77 565.43,-113.77 568.93,-103.77 561.93,-103.77"/>
</g>
<!-- JwtTwoFactorStrategy -->
<g id="node6" class="node">
<title>JwtTwoFactorStrategy</title>
<ellipse fill="#fdb462" stroke="black" cx="345" cy="-66.8" rx="99.01" ry="18"/>
<text text-anchor="middle" x="345" y="-62.6" font-family="Times,serif" font-size="14.00">JwtTwoFactorStrategy</text>
</g>
<!-- JwtTwoFactorStrategy&#45;&gt;AuthModule -->
<g id="edge5" class="edge">
<title>JwtTwoFactorStrategy&#45;&gt;AuthModule</title>
<path fill="none" stroke="black" d="M345,-84.82C345,-102.17 345,-125.8 345,-125.8 345,-125.8 545.34,-125.8 545.34,-125.8"/>
<polygon fill="black" stroke="black" points="545.34,-129.3 555.34,-125.8 545.34,-122.3 545.34,-129.3"/>
</g>
<!-- TwoFactorAuthService -->
<g id="node7" class="node">
<title>TwoFactorAuthService</title>
<ellipse fill="#fdb462" stroke="black" cx="126" cy="-66.8" rx="101.86" ry="18"/>
<text text-anchor="middle" x="126" y="-62.6" font-family="Times,serif" font-size="14.00">TwoFactorAuthService</text>
</g>
<!-- TwoFactorAuthService&#45;&gt;AuthModule -->
<g id="edge6" class="edge">
<title>TwoFactorAuthService&#45;&gt;AuthModule</title>
<path fill="none" stroke="black" d="M126,-85.08C126,-106.12 126,-137.8 126,-137.8 126,-137.8 545.35,-137.8 545.35,-137.8"/>
<polygon fill="black" stroke="black" points="545.35,-141.3 555.35,-137.8 545.35,-134.3 545.35,-141.3"/>
</g>
</g>
</svg>
