<?xml version="1.0" encoding="UTF-8" standalone="no"?>
<!DOCTYPE svg PUBLIC "-//W3C//DTD SVG 1.1//EN"
 "http://www.w3.org/Graphics/SVG/1.1/DTD/svg11.dtd">
<!-- Generated by graphviz version 5.0.0 (20220707.1540)
 -->
<!-- Title: dependencies Pages: 1 -->
<svg width="520pt" height="174pt"
 viewBox="0.00 0.00 520.00 173.80" xmlns="http://www.w3.org/2000/svg" xmlns:xlink="http://www.w3.org/1999/xlink">
<g id="graph0" class="graph" transform="scale(1 1) rotate(0) translate(4 169.8)">
<title>dependencies</title>
<polygon fill="white" stroke="transparent" points="-4,4 -4,-169.8 516,-169.8 516,4 -4,4"/>
<text text-anchor="middle" x="256" y="-8.2" font-family="sans-serif" font-size="14.00">dependencies</text>
<g id="clust1" class="cluster">
<title>cluster_AppModule</title>
<polygon fill="none" stroke="black" stroke-dasharray="1,5" points="8,-32.8 8,-157.8 504,-157.8 504,-32.8 8,-32.8"/>
</g>
<g id="clust6" class="cluster">
<title>cluster_AppModule_providers</title>
<polygon fill="none" stroke="black" points="366,-40.8 366,-92.8 496,-92.8 496,-40.8 366,-40.8"/>
</g>
<g id="clust3" class="cluster">
<title>cluster_AppModule_imports</title>
<polygon fill="none" stroke="black" points="16,-40.8 16,-92.8 358,-92.8 358,-40.8 16,-40.8"/>
</g>
<!-- AuthModule -->
<g id="node1" class="node">
<title>AuthModule</title>
<polygon fill="#8dd3c7" stroke="black" points="349.55,-84.8 346.55,-88.8 325.55,-88.8 322.55,-84.8 262.45,-84.8 262.45,-48.8 349.55,-48.8 349.55,-84.8"/>
<text text-anchor="middle" x="306" y="-62.6" font-family="Times,serif" font-size="14.00">AuthModule</text>
</g>
<!-- AppModule -->
<g id="node4" class="node">
<title>AppModule</title>
<polygon fill="#8dd3c7" stroke="black" points="288.66,-149.8 285.66,-153.8 264.66,-153.8 261.66,-149.8 205.34,-149.8 205.34,-113.8 288.66,-113.8 288.66,-149.8"/>
<text text-anchor="middle" x="247" y="-127.6" font-family="Times,serif" font-size="14.00">AppModule</text>
</g>
<!-- AuthModule&#45;&gt;AppModule -->
<g id="edge1" class="edge">
<title>AuthModule&#45;&gt;AppModule</title>
<path fill="none" stroke="black" d="M275.53,-84.91C275.53,-84.91 275.53,-103.79 275.53,-103.79"/>
<polygon fill="black" stroke="black" points="272.03,-103.79 275.53,-113.79 279.03,-103.79 272.03,-103.79"/>
</g>
<!-- DatabaseModule -->
<g id="node2" class="node">
<title>DatabaseModule</title>
<polygon fill="#8dd3c7" stroke="black" points="244.36,-84.8 241.36,-88.8 220.36,-88.8 217.36,-84.8 133.64,-84.8 133.64,-48.8 244.36,-48.8 244.36,-84.8"/>
<text text-anchor="middle" x="189" y="-62.6" font-family="Times,serif" font-size="14.00">DatabaseModule</text>
</g>
<!-- DatabaseModule&#45;&gt;AppModule -->
<g id="edge2" class="edge">
<title>DatabaseModule&#45;&gt;AppModule</title>
<path fill="none" stroke="black" d="M224.8,-84.91C224.8,-84.91 224.8,-103.79 224.8,-103.79"/>
<polygon fill="black" stroke="black" points="221.3,-103.79 224.8,-113.79 228.3,-103.79 221.3,-103.79"/>
</g>
<!-- UsersModule -->
<g id="node3" class="node">
<title>UsersModule</title>
<polygon fill="#8dd3c7" stroke="black" points="115.94,-84.8 112.94,-88.8 91.94,-88.8 88.94,-84.8 24.06,-84.8 24.06,-48.8 115.94,-48.8 115.94,-84.8"/>
<text text-anchor="middle" x="70" y="-62.6" font-family="Times,serif" font-size="14.00">UsersModule</text>
</g>
<!-- UsersModule&#45;&gt;AppModule -->
<g id="edge3" class="edge">
<title>UsersModule&#45;&gt;AppModule</title>
<path fill="none" stroke="black" d="M70,-84.91C70,-104.14 70,-131.8 70,-131.8 70,-131.8 195.05,-131.8 195.05,-131.8"/>
<polygon fill="black" stroke="black" points="195.05,-135.3 205.05,-131.8 195.05,-128.3 195.05,-135.3"/>
</g>
<!-- AppService -->
<g id="node5" class="node">
<title>AppService</title>
<ellipse fill="#fdb462" stroke="black" cx="431" cy="-66.8" rx="56.75" ry="18"/>
<text text-anchor="middle" x="431" y="-62.6" font-family="Times,serif" font-size="14.00">AppService</text>
</g>
<!-- AppService&#45;&gt;AppModule -->
<g id="edge4" class="edge">
<title>AppService&#45;&gt;AppModule</title>
<path fill="none" stroke="black" d="M431,-84.91C431,-104.14 431,-131.8 431,-131.8 431,-131.8 298.75,-131.8 298.75,-131.8"/>
<polygon fill="black" stroke="black" points="298.75,-128.3 288.75,-131.8 298.75,-135.3 298.75,-128.3"/>
</g>
</g>
</svg>
