<?xml version="1.0" encoding="UTF-8" standalone="no"?>
<!DOCTYPE svg PUBLIC "-//W3C//DTD SVG 1.1//EN"
 "http://www.w3.org/Graphics/SVG/1.1/DTD/svg11.dtd">
<!-- Generated by graphviz version 5.0.0 (20220707.1540)
 -->
<!-- Title: dependencies Pages: 1 -->
<svg width="871pt" height="174pt"
 viewBox="0.00 0.00 871.00 173.80" xmlns="http://www.w3.org/2000/svg" xmlns:xlink="http://www.w3.org/1999/xlink">
<g id="graph0" class="graph" transform="scale(1 1) rotate(0) translate(4 169.8)">
<title>dependencies</title>
<polygon fill="white" stroke="transparent" points="-4,4 -4,-169.8 867,-169.8 867,4 -4,4"/>
<text text-anchor="middle" x="431.5" y="-8.2" font-family="sans-serif" font-size="14.00">dependencies</text>
<g id="clust1" class="cluster">
<title>cluster_AppModule</title>
<polygon fill="none" stroke="black" stroke-dasharray="1,5" points="8,-32.8 8,-157.8 855,-157.8 855,-32.8 8,-32.8"/>
</g>
<g id="clust3" class="cluster">
<title>cluster_AppModule_imports</title>
<polygon fill="none" stroke="black" points="154,-40.8 154,-92.8 847,-92.8 847,-40.8 154,-40.8"/>
</g>
<g id="clust6" class="cluster">
<title>cluster_AppModule_providers</title>
<polygon fill="none" stroke="black" points="16,-40.8 16,-92.8 146,-92.8 146,-40.8 16,-40.8"/>
</g>
<!-- AuthModule -->
<g id="node1" class="node">
<title>AuthModule</title>
<polygon fill="#8dd3c7" stroke="black" points="838.55,-84.8 835.55,-88.8 814.55,-88.8 811.55,-84.8 751.45,-84.8 751.45,-48.8 838.55,-48.8 838.55,-84.8"/>
<text text-anchor="middle" x="795" y="-62.6" font-family="Times,serif" font-size="14.00">AuthModule</text>
</g>
<!-- AppModule -->
<g id="node7" class="node">
<title>AppModule</title>
<polygon fill="#8dd3c7" stroke="black" points="479.66,-149.8 476.66,-153.8 455.66,-153.8 452.66,-149.8 396.34,-149.8 396.34,-113.8 479.66,-113.8 479.66,-149.8"/>
<text text-anchor="middle" x="438" y="-127.6" font-family="Times,serif" font-size="14.00">AppModule</text>
</g>
<!-- AuthModule&#45;&gt;AppModule -->
<g id="edge1" class="edge">
<title>AuthModule&#45;&gt;AppModule</title>
<path fill="none" stroke="black" d="M795,-85.09C795,-107.01 795,-140.8 795,-140.8 795,-140.8 490,-140.8 490,-140.8"/>
<polygon fill="black" stroke="black" points="490,-137.3 480,-140.8 490,-144.3 490,-137.3"/>
</g>
<!-- ChannelsModule -->
<g id="node2" class="node">
<title>ChannelsModule</title>
<polygon fill="#8dd3c7" stroke="black" points="732.66,-84.8 729.66,-88.8 708.66,-88.8 705.66,-84.8 621.34,-84.8 621.34,-48.8 732.66,-48.8 732.66,-84.8"/>
<text text-anchor="middle" x="677" y="-62.6" font-family="Times,serif" font-size="14.00">ChannelsModule</text>
</g>
<!-- ChannelsModule&#45;&gt;AppModule -->
<g id="edge2" class="edge">
<title>ChannelsModule&#45;&gt;AppModule</title>
<path fill="none" stroke="black" d="M677,-84.91C677,-104.14 677,-131.8 677,-131.8 677,-131.8 489.9,-131.8 489.9,-131.8"/>
<polygon fill="black" stroke="black" points="489.9,-128.3 479.9,-131.8 489.9,-135.3 489.9,-128.3"/>
</g>
<!-- ChatsModule -->
<g id="node3" class="node">
<title>ChatsModule</title>
<polygon fill="#8dd3c7" stroke="black" points="602.94,-84.8 599.94,-88.8 578.94,-88.8 575.94,-84.8 511.06,-84.8 511.06,-48.8 602.94,-48.8 602.94,-84.8"/>
<text text-anchor="middle" x="557" y="-62.6" font-family="Times,serif" font-size="14.00">ChatsModule</text>
</g>
<!-- ChatsModule&#45;&gt;AppModule -->
<g id="edge3" class="edge">
<title>ChatsModule&#45;&gt;AppModule</title>
<path fill="none" stroke="black" d="M557,-84.83C557,-101.2 557,-122.8 557,-122.8 557,-122.8 489.95,-122.8 489.95,-122.8"/>
<polygon fill="black" stroke="black" points="489.95,-119.3 479.95,-122.8 489.95,-126.3 489.95,-119.3"/>
</g>
<!-- DatabaseModule -->
<g id="node4" class="node">
<title>DatabaseModule</title>
<polygon fill="#8dd3c7" stroke="black" points="493.36,-84.8 490.36,-88.8 469.36,-88.8 466.36,-84.8 382.64,-84.8 382.64,-48.8 493.36,-48.8 493.36,-84.8"/>
<text text-anchor="middle" x="438" y="-62.6" font-family="Times,serif" font-size="14.00">DatabaseModule</text>
</g>
<!-- DatabaseModule&#45;&gt;AppModule -->
<g id="edge4" class="edge">
<title>DatabaseModule&#45;&gt;AppModule</title>
<path fill="none" stroke="black" d="M438,-84.91C438,-84.91 438,-103.79 438,-103.79"/>
<polygon fill="black" stroke="black" points="434.5,-103.79 438,-113.79 441.5,-103.79 434.5,-103.79"/>
</g>
<!-- GameModule -->
<g id="node5" class="node">
<title>GameModule</title>
<polygon fill="#8dd3c7" stroke="black" points="364.48,-84.8 361.48,-88.8 340.48,-88.8 337.48,-84.8 271.52,-84.8 271.52,-48.8 364.48,-48.8 364.48,-84.8"/>
<text text-anchor="middle" x="318" y="-62.6" font-family="Times,serif" font-size="14.00">GameModule</text>
</g>
<!-- GameModule&#45;&gt;AppModule -->
<g id="edge5" class="edge">
<title>GameModule&#45;&gt;AppModule</title>
<path fill="none" stroke="black" d="M318,-84.83C318,-101.2 318,-122.8 318,-122.8 318,-122.8 386.03,-122.8 386.03,-122.8"/>
<polygon fill="black" stroke="black" points="386.03,-126.3 396.03,-122.8 386.03,-119.3 386.03,-126.3"/>
</g>
<!-- UsersModule -->
<g id="node6" class="node">
<title>UsersModule</title>
<polygon fill="#8dd3c7" stroke="black" points="253.94,-84.8 250.94,-88.8 229.94,-88.8 226.94,-84.8 162.06,-84.8 162.06,-48.8 253.94,-48.8 253.94,-84.8"/>
<text text-anchor="middle" x="208" y="-62.6" font-family="Times,serif" font-size="14.00">UsersModule</text>
</g>
<!-- UsersModule&#45;&gt;AppModule -->
<g id="edge6" class="edge">
<title>UsersModule&#45;&gt;AppModule</title>
<path fill="none" stroke="black" d="M208,-84.91C208,-104.14 208,-131.8 208,-131.8 208,-131.8 386.08,-131.8 386.08,-131.8"/>
<polygon fill="black" stroke="black" points="386.08,-135.3 396.08,-131.8 386.08,-128.3 386.08,-135.3"/>
</g>
<!-- AppService -->
<g id="node8" class="node">
<title>AppService</title>
<ellipse fill="#fdb462" stroke="black" cx="81" cy="-66.8" rx="56.75" ry="18"/>
<text text-anchor="middle" x="81" y="-62.6" font-family="Times,serif" font-size="14.00">AppService</text>
</g>
<!-- AppService&#45;&gt;AppModule -->
<g id="edge7" class="edge">
<title>AppService&#45;&gt;AppModule</title>
<path fill="none" stroke="black" d="M81,-85.09C81,-107.01 81,-140.8 81,-140.8 81,-140.8 386,-140.8 386,-140.8"/>
<polygon fill="black" stroke="black" points="386,-144.3 396,-140.8 386,-137.3 386,-144.3"/>
</g>
</g>
</svg>
