<?xml version="1.0" encoding="UTF-8" standalone="no"?>
<!DOCTYPE svg PUBLIC "-//W3C//DTD SVG 1.1//EN"
 "http://www.w3.org/Graphics/SVG/1.1/DTD/svg11.dtd">
<!-- Generated by graphviz version 5.0.0 (20220707.1540)
 -->
<!-- Title: dependencies Pages: 1 -->
<svg width="330pt" height="174pt"
 viewBox="0.00 0.00 330.00 173.80" xmlns="http://www.w3.org/2000/svg" xmlns:xlink="http://www.w3.org/1999/xlink">
<g id="graph0" class="graph" transform="scale(1 1) rotate(0) translate(4 169.8)">
<title>dependencies</title>
<polygon fill="white" stroke="transparent" points="-4,4 -4,-169.8 326,-169.8 326,4 -4,4"/>
<text text-anchor="middle" x="161" y="-8.2" font-family="sans-serif" font-size="14.00">dependencies</text>
<g id="clust1" class="cluster">
<title>cluster_ChannelsModule</title>
<polygon fill="none" stroke="black" stroke-dasharray="1,5" points="8,-32.8 8,-157.8 314,-157.8 314,-32.8 8,-32.8"/>
</g>
<g id="clust3" class="cluster">
<title>cluster_ChannelsModule_imports</title>
<polygon fill="none" stroke="black" points="192,-40.8 192,-92.8 306,-92.8 306,-40.8 192,-40.8"/>
</g>
<g id="clust6" class="cluster">
<title>cluster_ChannelsModule_providers</title>
<polygon fill="none" stroke="black" points="16,-40.8 16,-92.8 184,-92.8 184,-40.8 16,-40.8"/>
</g>
<!-- EventsModule -->
<g id="node1" class="node">
<title>EventsModule</title>
<polygon fill="#8dd3c7" stroke="black" points="297.66,-84.8 294.66,-88.8 273.66,-88.8 270.66,-84.8 200.34,-84.8 200.34,-48.8 297.66,-48.8 297.66,-84.8"/>
<text text-anchor="middle" x="249" y="-62.6" font-family="Times,serif" font-size="14.00">EventsModule</text>
</g>
<!-- ChannelsModule -->
<g id="node2" class="node">
<title>ChannelsModule</title>
<polygon fill="#8dd3c7" stroke="black" points="229.66,-149.8 226.66,-153.8 205.66,-153.8 202.66,-149.8 118.34,-149.8 118.34,-113.8 229.66,-113.8 229.66,-149.8"/>
<text text-anchor="middle" x="174" y="-127.6" font-family="Times,serif" font-size="14.00">ChannelsModule</text>
</g>
<!-- EventsModule&#45;&gt;ChannelsModule -->
<g id="edge1" class="edge">
<title>EventsModule&#45;&gt;ChannelsModule</title>
<path fill="none" stroke="black" d="M215,-84.91C215,-84.91 215,-103.79 215,-103.79"/>
<polygon fill="black" stroke="black" points="211.5,-103.79 215,-113.79 218.5,-103.79 211.5,-103.79"/>
</g>
<!-- ChannelsService -->
<g id="node3" class="node">
<title>ChannelsService</title>
<ellipse fill="#fdb462" stroke="black" cx="100" cy="-66.8" rx="75.87" ry="18"/>
<text text-anchor="middle" x="100" y="-62.6" font-family="Times,serif" font-size="14.00">ChannelsService</text>
</g>
<!-- ChannelsService&#45;&gt;ChannelsModule -->
<g id="edge2" class="edge">
<title>ChannelsService&#45;&gt;ChannelsModule</title>
<path fill="none" stroke="black" d="M147.05,-81.23C147.05,-81.23 147.05,-103.69 147.05,-103.69"/>
<polygon fill="black" stroke="black" points="143.55,-103.69 147.05,-113.69 150.55,-103.69 143.55,-103.69"/>
</g>
</g>
</svg>
