<?xml version="1.0" encoding="UTF-8" standalone="no"?>
<!DOCTYPE svg PUBLIC "-//W3C//DTD SVG 1.1//EN"
 "http://www.w3.org/Graphics/SVG/1.1/DTD/svg11.dtd">
<!-- Generated by graphviz version 5.0.0 (20220707.1540)
 -->
<!-- Title: dependencies Pages: 1 -->
<svg width="2128pt" height="326pt"
 viewBox="0.00 0.00 2128.00 325.80" xmlns="http://www.w3.org/2000/svg" xmlns:xlink="http://www.w3.org/1999/xlink">
<g id="graph0" class="graph" transform="scale(1 1) rotate(0) translate(4 321.8)">
<title>dependencies</title>
<polygon fill="white" stroke="transparent" points="-4,4 -4,-321.8 2124,-321.8 2124,4 -4,4"/>
<text text-anchor="middle" x="1060" y="-8.2" font-family="sans-serif" font-size="14.00">dependencies</text>
<g id="clust1" class="cluster">
<title>cluster_AppModule</title>
<polygon fill="none" stroke="black" stroke-dasharray="1,5" points="290,-108.8 290,-309.8 1030,-309.8 1030,-108.8 290,-108.8"/>
</g>
<g id="clust3" class="cluster">
<title>cluster_AppModule_imports</title>
<polygon fill="none" stroke="black" points="436,-116.8 436,-244.8 1022,-244.8 1022,-116.8 436,-116.8"/>
</g>
<g id="clust6" class="cluster">
<title>cluster_AppModule_providers</title>
<polygon fill="none" stroke="black" points="298,-192.8 298,-244.8 428,-244.8 428,-192.8 298,-192.8"/>
</g>
<g id="clust7" class="cluster">
<title>cluster_AuthModule</title>
<polygon fill="none" stroke="black" stroke-dasharray="1,5" points="1200,-108.8 1200,-176.8 2112,-176.8 2112,-108.8 1200,-108.8"/>
</g>
<g id="clust12" class="cluster">
<title>cluster_AuthModule_providers</title>
<polygon fill="none" stroke="black" points="1208,-116.8 1208,-168.8 2104,-168.8 2104,-116.8 1208,-116.8"/>
</g>
<g id="clust13" class="cluster">
<title>cluster_ChannelsModule</title>
<polygon fill="none" stroke="black" stroke-dasharray="1,5" points="900,-32.8 900,-100.8 1206,-100.8 1206,-32.8 900,-32.8"/>
</g>
<g id="clust15" class="cluster">
<title>cluster_ChannelsModule_imports</title>
<polygon fill="none" stroke="black" points="1084,-40.8 1084,-92.8 1198,-92.8 1198,-40.8 1084,-40.8"/>
</g>
<g id="clust18" class="cluster">
<title>cluster_ChannelsModule_providers</title>
<polygon fill="none" stroke="black" points="908,-40.8 908,-92.8 1076,-92.8 1076,-40.8 908,-40.8"/>
</g>
<g id="clust19" class="cluster">
<title>cluster_ChatsModule</title>
<polygon fill="none" stroke="black" stroke-dasharray="1,5" points="422,-32.8 422,-100.8 578,-100.8 578,-32.8 422,-32.8"/>
</g>
<g id="clust24" class="cluster">
<title>cluster_ChatsModule_providers</title>
<polygon fill="none" stroke="black" points="430,-40.8 430,-92.8 570,-92.8 570,-40.8 430,-40.8"/>
</g>
<g id="clust31" class="cluster">
<title>cluster_EventsModule</title>
<polygon fill="none" stroke="black" stroke-dasharray="1,5" points="1038,-108.8 1038,-176.8 1192,-176.8 1192,-108.8 1038,-108.8"/>
</g>
<g id="clust34" class="cluster">
<title>cluster_EventsModule_exports</title>
<polygon fill="none" stroke="black" points="1046,-116.8 1046,-168.8 1184,-168.8 1184,-116.8 1046,-116.8"/>
</g>
<g id="clust37" class="cluster">
<title>cluster_GameModule</title>
<polygon fill="none" stroke="black" stroke-dasharray="1,5" points="586,-32.8 586,-100.8 892,-100.8 892,-32.8 586,-32.8"/>
</g>
<g id="clust42" class="cluster">
<title>cluster_GameModule_providers</title>
<polygon fill="none" stroke="black" points="594,-40.8 594,-92.8 884,-92.8 884,-40.8 594,-40.8"/>
</g>
<g id="clust43" class="cluster">
<title>cluster_UsersModule</title>
<polygon fill="none" stroke="black" stroke-dasharray="1,5" points="8,-184.8 8,-252.8 282,-252.8 282,-184.8 8,-184.8"/>
</g>
<g id="clust46" class="cluster">
<title>cluster_UsersModule_exports</title>
<polygon fill="none" stroke="black" points="164,-192.8 164,-244.8 274,-244.8 274,-192.8 164,-192.8"/>
</g>
<g id="clust48" class="cluster">
<title>cluster_UsersModule_providers</title>
<polygon fill="none" stroke="black" points="16,-192.8 16,-244.8 156,-244.8 156,-192.8 16,-192.8"/>
</g>
<!-- AuthModule -->
<g id="node1" class="node">
<title>AuthModule</title>
<polygon fill="#8dd3c7" stroke="black" points="1013.55,-236.8 1010.55,-240.8 989.55,-240.8 986.55,-236.8 926.45,-236.8 926.45,-200.8 1013.55,-200.8 1013.55,-236.8"/>
<text text-anchor="middle" x="970" y="-214.6" font-family="Times,serif" font-size="14.00">AuthModule</text>
</g>
<!-- AppModule -->
<g id="node7" class="node">
<title>AppModule</title>
<polygon fill="#8dd3c7" stroke="black" points="769.66,-301.8 766.66,-305.8 745.66,-305.8 742.66,-301.8 686.34,-301.8 686.34,-265.8 769.66,-265.8 769.66,-301.8"/>
<text text-anchor="middle" x="728" y="-279.6" font-family="Times,serif" font-size="14.00">AppModule</text>
</g>
<!-- AuthModule&#45;&gt;AppModule -->
<g id="edge1" class="edge">
<title>AuthModule&#45;&gt;AppModule</title>
<path fill="none" stroke="black" d="M926.32,-227.8C861.89,-227.8 748.92,-227.8 748.92,-227.8 748.92,-227.8 748.92,-255.77 748.92,-255.77"/>
<polygon fill="black" stroke="black" points="745.42,-255.77 748.92,-265.77 752.42,-255.77 745.42,-255.77"/>
</g>
<!-- ChannelsModule -->
<g id="node2" class="node">
<title>ChannelsModule</title>
<polygon fill="#8dd3c7" stroke="black" points="1013.66,-160.8 1010.66,-164.8 989.66,-164.8 986.66,-160.8 902.34,-160.8 902.34,-124.8 1013.66,-124.8 1013.66,-160.8"/>
<text text-anchor="middle" x="958" y="-138.6" font-family="Times,serif" font-size="14.00">ChannelsModule</text>
</g>
<!-- ChannelsModule&#45;&gt;AppModule -->
<g id="edge2" class="edge">
<title>ChannelsModule&#45;&gt;AppModule</title>
<path fill="none" stroke="black" d="M914.2,-160.83C914.2,-200.08 914.2,-289.8 914.2,-289.8 914.2,-289.8 779.79,-289.8 779.79,-289.8"/>
<polygon fill="black" stroke="black" points="779.79,-286.3 769.79,-289.8 779.79,-293.3 779.79,-286.3"/>
</g>
<!-- ChatsModule -->
<g id="node3" class="node">
<title>ChatsModule</title>
<polygon fill="#8dd3c7" stroke="black" points="773.94,-160.8 770.94,-164.8 749.94,-164.8 746.94,-160.8 682.06,-160.8 682.06,-124.8 773.94,-124.8 773.94,-160.8"/>
<text text-anchor="middle" x="728" y="-138.6" font-family="Times,serif" font-size="14.00">ChatsModule</text>
</g>
<!-- ChatsModule&#45;&gt;AppModule -->
<g id="edge3" class="edge">
<title>ChatsModule&#45;&gt;AppModule</title>
<path fill="none" stroke="black" d="M728,-160.94C728,-160.94 728,-255.73 728,-255.73"/>
<polygon fill="black" stroke="black" points="724.5,-255.72 728,-265.73 731.5,-255.73 724.5,-255.72"/>
</g>
<!-- DatabaseModule -->
<g id="node4" class="node">
<title>DatabaseModule</title>
<polygon fill="#8dd3c7" stroke="black" points="664.36,-160.8 661.36,-164.8 640.36,-164.8 637.36,-160.8 553.64,-160.8 553.64,-124.8 664.36,-124.8 664.36,-160.8"/>
<text text-anchor="middle" x="609" y="-138.6" font-family="Times,serif" font-size="14.00">DatabaseModule</text>
</g>
<!-- DatabaseModule&#45;&gt;AppModule -->
<g id="edge4" class="edge">
<title>DatabaseModule&#45;&gt;AppModule</title>
<path fill="none" stroke="black" d="M609,-161.01C609,-197.86 609,-277.8 609,-277.8 609,-277.8 676.05,-277.8 676.05,-277.8"/>
<polygon fill="black" stroke="black" points="676.05,-281.3 686.05,-277.8 676.05,-274.3 676.05,-281.3"/>
</g>
<!-- GameModule -->
<g id="node5" class="node">
<title>GameModule</title>
<polygon fill="#8dd3c7" stroke="black" points="884.48,-160.8 881.48,-164.8 860.48,-164.8 857.48,-160.8 791.52,-160.8 791.52,-124.8 884.48,-124.8 884.48,-160.8"/>
<text text-anchor="middle" x="838" y="-138.6" font-family="Times,serif" font-size="14.00">GameModule</text>
</g>
<!-- GameModule&#45;&gt;AppModule -->
<g id="edge5" class="edge">
<title>GameModule&#45;&gt;AppModule</title>
<path fill="none" stroke="black" d="M838,-161.01C838,-197.86 838,-277.8 838,-277.8 838,-277.8 779.9,-277.8 779.9,-277.8"/>
<polygon fill="black" stroke="black" points="779.9,-274.3 769.9,-277.8 779.9,-281.3 779.9,-274.3"/>
</g>
<!-- UsersModule -->
<g id="node6" class="node">
<title>UsersModule</title>
<polygon fill="#8dd3c7" stroke="black" points="535.94,-160.8 532.94,-164.8 511.94,-164.8 508.94,-160.8 444.06,-160.8 444.06,-124.8 535.94,-124.8 535.94,-160.8"/>
<text text-anchor="middle" x="490" y="-138.6" font-family="Times,serif" font-size="14.00">UsersModule</text>
</g>
<!-- UsersModule&#45;&gt;AuthModule -->
<g id="edge8" class="edge">
<title>UsersModule&#45;&gt;AuthModule</title>
<path fill="none" stroke="black" d="M505.24,-161.11C505.24,-180.95 505.24,-209.8 505.24,-209.8 505.24,-209.8 916.28,-209.8 916.28,-209.8"/>
<polygon fill="black" stroke="black" points="916.28,-213.3 926.28,-209.8 916.28,-206.3 916.28,-213.3"/>
</g>
<!-- UsersModule&#45;&gt;AppModule -->
<g id="edge6" class="edge">
<title>UsersModule&#45;&gt;AppModule</title>
<path fill="none" stroke="black" d="M474.76,-160.83C474.76,-200.08 474.76,-289.8 474.76,-289.8 474.76,-289.8 676.18,-289.8 676.18,-289.8"/>
<polygon fill="black" stroke="black" points="676.18,-293.3 686.18,-289.8 676.18,-286.3 676.18,-293.3"/>
</g>
<!-- UsersService  -->
<g id="node20" class="node">
<title>UsersService </title>
<polygon fill="#fb8072" stroke="black" points="265.86,-236.8 172.14,-236.8 172.14,-200.8 265.86,-200.8 265.86,-236.8"/>
<text text-anchor="middle" x="219" y="-214.6" font-family="Times,serif" font-size="14.00">UsersService </text>
</g>
<!-- UsersModule&#45;&gt;UsersService  -->
<g id="edge20" class="edge">
<title>UsersModule&#45;&gt;UsersService </title>
<path fill="none" stroke="black" stroke-dasharray="5,2" d="M444.03,-148.8C366.71,-148.8 219,-148.8 219,-148.8 219,-148.8 219,-190.77 219,-190.77"/>
<polygon fill="black" stroke="black" points="215.5,-190.77 219,-200.77 222.5,-190.77 215.5,-190.77"/>
</g>
<!-- AppService -->
<g id="node8" class="node">
<title>AppService</title>
<ellipse fill="#fdb462" stroke="black" cx="363" cy="-218.8" rx="56.75" ry="18"/>
<text text-anchor="middle" x="363" y="-214.6" font-family="Times,serif" font-size="14.00">AppService</text>
</g>
<!-- AppService&#45;&gt;AppModule -->
<g id="edge7" class="edge">
<title>AppService&#45;&gt;AppModule</title>
<path fill="none" stroke="black" d="M419.82,-218.8C517.55,-218.8 707.08,-218.8 707.08,-218.8 707.08,-218.8 707.08,-255.69 707.08,-255.69"/>
<polygon fill="black" stroke="black" points="703.58,-255.69 707.08,-265.69 710.58,-255.69 703.58,-255.69"/>
</g>
<!-- AuthService -->
<g id="node9" class="node">
<title>AuthService</title>
<ellipse fill="#fdb462" stroke="black" cx="1467" cy="-142.8" rx="59.11" ry="18"/>
<text text-anchor="middle" x="1467" y="-138.6" font-family="Times,serif" font-size="14.00">AuthService</text>
</g>
<!-- AuthService&#45;&gt;AuthModule -->
<g id="edge9" class="edge">
<title>AuthService&#45;&gt;AuthModule</title>
<path fill="none" stroke="black" d="M1467,-160.83C1467,-181.57 1467,-212.8 1467,-212.8 1467,-212.8 1023.67,-212.8 1023.67,-212.8"/>
<polygon fill="black" stroke="black" points="1023.67,-209.3 1013.67,-212.8 1023.67,-216.3 1023.67,-209.3"/>
</g>
<!-- JwtRefreshStrategy -->
<g id="node10" class="node">
<title>JwtRefreshStrategy</title>
<ellipse fill="#fdb462" stroke="black" cx="1303" cy="-142.8" rx="86.83" ry="18"/>
<text text-anchor="middle" x="1303" y="-138.6" font-family="Times,serif" font-size="14.00">JwtRefreshStrategy</text>
</g>
<!-- JwtRefreshStrategy&#45;&gt;AuthModule -->
<g id="edge10" class="edge">
<title>JwtRefreshStrategy&#45;&gt;AuthModule</title>
<path fill="none" stroke="black" d="M1303,-160.97C1303,-179.89 1303,-206.8 1303,-206.8 1303,-206.8 1023.88,-206.8 1023.88,-206.8"/>
<polygon fill="black" stroke="black" points="1023.88,-203.3 1013.88,-206.8 1023.88,-210.3 1023.88,-203.3"/>
</g>
<!-- JwtStrategy -->
<g id="node11" class="node">
<title>JwtStrategy</title>
<ellipse fill="#fdb462" stroke="black" cx="2039" cy="-142.8" rx="56.77" ry="18"/>
<text text-anchor="middle" x="2039" y="-138.6" font-family="Times,serif" font-size="14.00">JwtStrategy</text>
</g>
<!-- JwtStrategy&#45;&gt;AuthModule -->
<g id="edge11" class="edge">
<title>JwtStrategy&#45;&gt;AuthModule</title>
<path fill="none" stroke="black" d="M2039,-161.03C2039,-186.81 2039,-230.8 2039,-230.8 2039,-230.8 1023.56,-230.8 1023.56,-230.8"/>
<polygon fill="black" stroke="black" points="1023.56,-227.3 1013.56,-230.8 1023.56,-234.3 1023.56,-227.3"/>
</g>
<!-- JwtTwoFactorStrategy -->
<g id="node12" class="node">
<title>JwtTwoFactorStrategy</title>
<ellipse fill="#fdb462" stroke="black" cx="1865" cy="-142.8" rx="99.01" ry="18"/>
<text text-anchor="middle" x="1865" y="-138.6" font-family="Times,serif" font-size="14.00">JwtTwoFactorStrategy</text>
</g>
<!-- JwtTwoFactorStrategy&#45;&gt;AuthModule -->
<g id="edge12" class="edge">
<title>JwtTwoFactorStrategy&#45;&gt;AuthModule</title>
<path fill="none" stroke="black" d="M1865,-161C1865,-185.16 1865,-224.8 1865,-224.8 1865,-224.8 1023.77,-224.8 1023.77,-224.8"/>
<polygon fill="black" stroke="black" points="1023.77,-221.3 1013.77,-224.8 1023.77,-228.3 1023.77,-221.3"/>
</g>
<!-- TwoFactorAuthService -->
<g id="node13" class="node">
<title>TwoFactorAuthService</title>
<ellipse fill="#fdb462" stroke="black" cx="1646" cy="-142.8" rx="101.86" ry="18"/>
<text text-anchor="middle" x="1646" y="-138.6" font-family="Times,serif" font-size="14.00">TwoFactorAuthService</text>
</g>
<!-- TwoFactorAuthService&#45;&gt;AuthModule -->
<g id="edge13" class="edge">
<title>TwoFactorAuthService&#45;&gt;AuthModule</title>
<path fill="none" stroke="black" d="M1646,-160.81C1646,-183.29 1646,-218.8 1646,-218.8 1646,-218.8 1023.57,-218.8 1023.57,-218.8"/>
<polygon fill="black" stroke="black" points="1023.57,-215.3 1013.57,-218.8 1023.57,-222.3 1023.57,-215.3"/>
</g>
<!-- EventsModule -->
<g id="node14" class="node">
<title>EventsModule</title>
<polygon fill="#8dd3c7" stroke="black" points="1189.66,-84.8 1186.66,-88.8 1165.66,-88.8 1162.66,-84.8 1092.34,-84.8 1092.34,-48.8 1189.66,-48.8 1189.66,-84.8"/>
<text text-anchor="middle" x="1141" y="-62.6" font-family="Times,serif" font-size="14.00">EventsModule</text>
</g>
<!-- EventsModule&#45;&gt;ChannelsModule -->
<g id="edge14" class="edge">
<title>EventsModule&#45;&gt;ChannelsModule</title>
<path fill="none" stroke="black" d="M1120.01,-85.01C1120.01,-90.35 1120.01,-94.8 1120.01,-94.8 1120.01,-94.8 981.24,-94.8 981.24,-94.8 981.24,-94.8 981.24,-114.65 981.24,-114.65"/>
<polygon fill="black" stroke="black" points="977.74,-114.65 981.24,-124.65 984.74,-114.65 977.74,-114.65"/>
</g>
<!-- ChannelsGateway  -->
<g id="node17" class="node">
<title>ChannelsGateway </title>
<polygon fill="#fb8072" stroke="black" points="1175.86,-160.8 1054.14,-160.8 1054.14,-124.8 1175.86,-124.8 1175.86,-160.8"/>
<text text-anchor="middle" x="1115" y="-138.6" font-family="Times,serif" font-size="14.00">ChannelsGateway </text>
</g>
<!-- EventsModule&#45;&gt;ChannelsGateway  -->
<g id="edge17" class="edge">
<title>EventsModule&#45;&gt;ChannelsGateway </title>
<path fill="none" stroke="black" stroke-dasharray="5,2" d="M1147.84,-84.81C1147.84,-84.81 1147.84,-114.65 1147.84,-114.65"/>
<polygon fill="black" stroke="black" points="1144.34,-114.65 1147.84,-124.65 1151.34,-114.65 1144.34,-114.65"/>
</g>
<!-- ChannelsService -->
<g id="node15" class="node">
<title>ChannelsService</title>
<ellipse fill="#fdb462" stroke="black" cx="992" cy="-66.8" rx="75.87" ry="18"/>
<text text-anchor="middle" x="992" y="-62.6" font-family="Times,serif" font-size="14.00">ChannelsService</text>
</g>
<!-- ChannelsService&#45;&gt;ChannelsModule -->
<g id="edge15" class="edge">
<title>ChannelsService&#45;&gt;ChannelsModule</title>
<path fill="none" stroke="black" d="M948.65,-81.82C948.65,-81.82 948.65,-114.6 948.65,-114.6"/>
<polygon fill="black" stroke="black" points="945.15,-114.6 948.65,-124.6 952.15,-114.6 945.15,-114.6"/>
</g>
<!-- ChatsService -->
<g id="node16" class="node">
<title>ChatsService</title>
<ellipse fill="#fdb462" stroke="black" cx="500" cy="-66.8" rx="61.98" ry="18"/>
<text text-anchor="middle" x="500" y="-62.6" font-family="Times,serif" font-size="14.00">ChatsService</text>
</g>
<!-- ChatsService&#45;&gt;ChatsModule -->
<g id="edge16" class="edge">
<title>ChatsService&#45;&gt;ChatsModule</title>
<path fill="none" stroke="black" d="M557.78,-73.47C557.78,-86.66 557.78,-114.8 557.78,-114.8 557.78,-114.8 697.54,-114.8 697.54,-114.8 697.54,-114.8 697.54,-115.78 697.54,-115.78"/>
<polygon fill="black" stroke="black" points="694.04,-114.59 697.54,-124.59 701.04,-114.59 694.04,-114.59"/>
</g>
<!-- GameService -->
<g id="node18" class="node">
<title>GameService</title>
<ellipse fill="#fdb462" stroke="black" cx="665" cy="-66.8" rx="63.1" ry="18"/>
<text text-anchor="middle" x="665" y="-62.6" font-family="Times,serif" font-size="14.00">GameService</text>
</g>
<!-- GameService&#45;&gt;GameModule -->
<g id="edge18" class="edge">
<title>GameService&#45;&gt;GameModule</title>
<path fill="none" stroke="black" d="M712.79,-78.82C712.79,-89.96 712.79,-104.8 712.79,-104.8 712.79,-104.8 819.74,-104.8 819.74,-104.8 819.74,-104.8 819.74,-114.69 819.74,-114.69"/>
<polygon fill="black" stroke="black" points="816.24,-114.69 819.74,-124.69 823.24,-114.69 816.24,-114.69"/>
</g>
<!-- LobbyService -->
<g id="node19" class="node">
<title>LobbyService</title>
<ellipse fill="#fdb462" stroke="black" cx="811" cy="-66.8" rx="65.41" ry="18"/>
<text text-anchor="middle" x="811" y="-62.6" font-family="Times,serif" font-size="14.00">LobbyService</text>
</g>
<!-- LobbyService&#45;&gt;GameModule -->
<g id="edge19" class="edge">
<title>LobbyService&#45;&gt;GameModule</title>
<path fill="none" stroke="black" d="M847.97,-81.82C847.97,-81.82 847.97,-114.6 847.97,-114.6"/>
<polygon fill="black" stroke="black" points="844.47,-114.6 847.97,-124.6 851.47,-114.6 844.47,-114.6"/>
</g>
<!-- UsersService -->
<g id="node21" class="node">
<title>UsersService</title>
<ellipse fill="#fdb462" stroke="black" cx="86" cy="-218.8" rx="61.97" ry="18"/>
<text text-anchor="middle" x="86" y="-214.6" font-family="Times,serif" font-size="14.00">UsersService</text>
</g>
<!-- UsersService&#45;&gt;UsersModule -->
<g id="edge21" class="edge">
<title>UsersService&#45;&gt;UsersModule</title>
<path fill="none" stroke="black" d="M86,-200.6C86,-176.44 86,-136.8 86,-136.8 86,-136.8 434.05,-136.8 434.05,-136.8"/>
<polygon fill="black" stroke="black" points="434.05,-140.3 444.05,-136.8 434.05,-133.3 434.05,-140.3"/>
</g>
</g>
</svg>
