<?xml version="1.0" encoding="UTF-8" standalone="no"?>
<!DOCTYPE svg PUBLIC "-//W3C//DTD SVG 1.1//EN"
 "http://www.w3.org/Graphics/SVG/1.1/DTD/svg11.dtd">
<!-- Generated by graphviz version 5.0.0 (20220707.1540)
 -->
<!-- Title: dependencies Pages: 1 -->
<svg width="1920pt" height="250pt"
 viewBox="0.00 0.00 1920.00 249.80" xmlns="http://www.w3.org/2000/svg" xmlns:xlink="http://www.w3.org/1999/xlink">
<g id="graph0" class="graph" transform="scale(1 1) rotate(0) translate(4 245.8)">
<title>dependencies</title>
<polygon fill="white" stroke="transparent" points="-4,4 -4,-245.8 1916,-245.8 1916,4 -4,4"/>
<text text-anchor="middle" x="956" y="-8.2" font-family="sans-serif" font-size="14.00">dependencies</text>
<g id="clust1" class="cluster">
<title>cluster_AppModule</title>
<polygon fill="none" stroke="black" stroke-dasharray="1,5" points="1232,-32.8 1232,-233.8 1622,-233.8 1622,-32.8 1232,-32.8"/>
</g>
<g id="clust3" class="cluster">
<title>cluster_AppModule_imports</title>
<polygon fill="none" stroke="black" points="1378,-40.8 1378,-168.8 1614,-168.8 1614,-40.8 1378,-40.8"/>
</g>
<g id="clust6" class="cluster">
<title>cluster_AppModule_providers</title>
<polygon fill="none" stroke="black" points="1240,-116.8 1240,-168.8 1370,-168.8 1370,-116.8 1240,-116.8"/>
</g>
<g id="clust7" class="cluster">
<title>cluster_AuthModule</title>
<polygon fill="none" stroke="black" stroke-dasharray="1,5" points="8,-32.8 8,-100.8 1224,-100.8 1224,-32.8 8,-32.8"/>
</g>
<g id="clust10" class="cluster">
<title>cluster_AuthModule_exports</title>
<polygon fill="none" stroke="black" points="1110,-40.8 1110,-92.8 1216,-92.8 1216,-40.8 1110,-40.8"/>
</g>
<g id="clust12" class="cluster">
<title>cluster_AuthModule_providers</title>
<polygon fill="none" stroke="black" points="16,-40.8 16,-92.8 1102,-92.8 1102,-40.8 16,-40.8"/>
</g>
<g id="clust19" class="cluster">
<title>cluster_UsersModule</title>
<polygon fill="none" stroke="black" stroke-dasharray="1,5" points="1630,-108.8 1630,-176.8 1904,-176.8 1904,-108.8 1630,-108.8"/>
</g>
<g id="clust22" class="cluster">
<title>cluster_UsersModule_exports</title>
<polygon fill="none" stroke="black" points="1786,-116.8 1786,-168.8 1896,-168.8 1896,-116.8 1786,-116.8"/>
</g>
<g id="clust24" class="cluster">
<title>cluster_UsersModule_providers</title>
<polygon fill="none" stroke="black" points="1638,-116.8 1638,-168.8 1778,-168.8 1778,-116.8 1638,-116.8"/>
</g>
<!-- AuthModule -->
<g id="node1" class="node">
<title>AuthModule</title>
<polygon fill="#8dd3c7" stroke="black" points="1473.55,-160.8 1470.55,-164.8 1449.55,-164.8 1446.55,-160.8 1386.45,-160.8 1386.45,-124.8 1473.55,-124.8 1473.55,-160.8"/>
<text text-anchor="middle" x="1430" y="-138.6" font-family="Times,serif" font-size="14.00">AuthModule</text>
</g>
<!-- AppModule -->
<g id="node4" class="node">
<title>AppModule</title>
<polygon fill="#8dd3c7" stroke="black" points="1502.66,-225.8 1499.66,-229.8 1478.66,-229.8 1475.66,-225.8 1419.34,-225.8 1419.34,-189.8 1502.66,-189.8 1502.66,-225.8"/>
<text text-anchor="middle" x="1461" y="-203.6" font-family="Times,serif" font-size="14.00">AppModule</text>
</g>
<!-- AuthModule&#45;&gt;AppModule -->
<g id="edge1" class="edge">
<title>AuthModule&#45;&gt;AppModule</title>
<path fill="none" stroke="black" d="M1446.47,-160.91C1446.47,-160.91 1446.47,-179.79 1446.47,-179.79"/>
<polygon fill="black" stroke="black" points="1442.97,-179.79 1446.47,-189.79 1449.97,-179.79 1442.97,-179.79"/>
</g>
<!-- AuthService  -->
<g id="node6" class="node">
<title>AuthService </title>
<polygon fill="#fb8072" stroke="black" points="1207.98,-84.8 1118.02,-84.8 1118.02,-48.8 1207.98,-48.8 1207.98,-84.8"/>
<text text-anchor="middle" x="1163" y="-62.6" font-family="Times,serif" font-size="14.00">AuthService </text>
</g>
<!-- AuthModule&#45;&gt;AuthService  -->
<g id="edge6" class="edge">
<title>AuthModule&#45;&gt;AuthService </title>
<path fill="none" stroke="black" stroke-dasharray="5,2" d="M1386.4,-142.8C1378.97,-142.8 1373.6,-142.8 1373.6,-142.8 1373.6,-142.8 1373.6,-66.8 1373.6,-66.8 1373.6,-66.8 1217.92,-66.8 1217.92,-66.8"/>
<polygon fill="black" stroke="black" points="1217.92,-63.3 1207.92,-66.8 1217.92,-70.3 1217.92,-63.3"/>
</g>
<!-- DatabaseModule -->
<g id="node2" class="node">
<title>DatabaseModule</title>
<polygon fill="#8dd3c7" stroke="black" points="1496.36,-84.8 1493.36,-88.8 1472.36,-88.8 1469.36,-84.8 1385.64,-84.8 1385.64,-48.8 1496.36,-48.8 1496.36,-84.8"/>
<text text-anchor="middle" x="1441" y="-62.6" font-family="Times,serif" font-size="14.00">DatabaseModule</text>
</g>
<!-- DatabaseModule&#45;&gt;AppModule -->
<g id="edge2" class="edge">
<title>DatabaseModule&#45;&gt;AppModule</title>
<path fill="none" stroke="black" d="M1485.1,-84.94C1485.1,-84.94 1485.1,-179.73 1485.1,-179.73"/>
<polygon fill="black" stroke="black" points="1481.6,-179.72 1485.1,-189.73 1488.6,-179.73 1481.6,-179.72"/>
</g>
<!-- UsersModule -->
<g id="node3" class="node">
<title>UsersModule</title>
<polygon fill="#8dd3c7" stroke="black" points="1605.94,-84.8 1602.94,-88.8 1581.94,-88.8 1578.94,-84.8 1514.06,-84.8 1514.06,-48.8 1605.94,-48.8 1605.94,-84.8"/>
<text text-anchor="middle" x="1560" y="-62.6" font-family="Times,serif" font-size="14.00">UsersModule</text>
</g>
<!-- UsersModule&#45;&gt;AuthModule -->
<g id="edge5" class="edge">
<title>UsersModule&#45;&gt;AuthModule</title>
<path fill="none" stroke="black" d="M1537.14,-85C1537.14,-109.16 1537.14,-148.8 1537.14,-148.8 1537.14,-148.8 1483.58,-148.8 1483.58,-148.8"/>
<polygon fill="black" stroke="black" points="1483.58,-145.3 1473.58,-148.8 1483.58,-152.3 1483.58,-145.3"/>
</g>
<!-- UsersModule&#45;&gt;AppModule -->
<g id="edge3" class="edge">
<title>UsersModule&#45;&gt;AppModule</title>
<path fill="none" stroke="black" d="M1560,-84.94C1560,-123.03 1560,-207.8 1560,-207.8 1560,-207.8 1512.7,-207.8 1512.7,-207.8"/>
<polygon fill="black" stroke="black" points="1512.7,-204.3 1502.7,-207.8 1512.7,-211.3 1512.7,-204.3"/>
</g>
<!-- UsersService  -->
<g id="node13" class="node">
<title>UsersService </title>
<polygon fill="#fb8072" stroke="black" points="1887.86,-160.8 1794.14,-160.8 1794.14,-124.8 1887.86,-124.8 1887.86,-160.8"/>
<text text-anchor="middle" x="1841" y="-138.6" font-family="Times,serif" font-size="14.00">UsersService </text>
</g>
<!-- UsersModule&#45;&gt;UsersService  -->
<g id="edge13" class="edge">
<title>UsersModule&#45;&gt;UsersService </title>
<path fill="none" stroke="black" stroke-dasharray="5,2" d="M1605.77,-66.8C1685.4,-66.8 1841,-66.8 1841,-66.8 1841,-66.8 1841,-114.79 1841,-114.79"/>
<polygon fill="black" stroke="black" points="1837.5,-114.79 1841,-124.79 1844.5,-114.79 1837.5,-114.79"/>
</g>
<!-- AppService -->
<g id="node5" class="node">
<title>AppService</title>
<ellipse fill="#fdb462" stroke="black" cx="1305" cy="-142.8" rx="56.75" ry="18"/>
<text text-anchor="middle" x="1305" y="-138.6" font-family="Times,serif" font-size="14.00">AppService</text>
</g>
<!-- AppService&#45;&gt;AppModule -->
<g id="edge4" class="edge">
<title>AppService&#45;&gt;AppModule</title>
<path fill="none" stroke="black" d="M1305,-160.91C1305,-180.14 1305,-207.8 1305,-207.8 1305,-207.8 1409.19,-207.8 1409.19,-207.8"/>
<polygon fill="black" stroke="black" points="1409.19,-211.3 1419.19,-207.8 1409.19,-204.3 1409.19,-211.3"/>
</g>
<!-- AuthService -->
<g id="node7" class="node">
<title>AuthService</title>
<ellipse fill="#fdb462" stroke="black" cx="1035" cy="-66.8" rx="59.11" ry="18"/>
<text text-anchor="middle" x="1035" y="-62.6" font-family="Times,serif" font-size="14.00">AuthService</text>
</g>
<!-- AuthService&#45;&gt;AuthModule -->
<g id="edge7" class="edge">
<title>AuthService&#45;&gt;AuthModule</title>
<path fill="none" stroke="black" d="M1035,-84.99C1035,-88.34 1035,-90.8 1035,-90.8 1035,-90.8 1461.27,-90.8 1461.27,-90.8 1461.27,-90.8 1461.27,-114.61 1461.27,-114.61"/>
<polygon fill="black" stroke="black" points="1457.77,-114.61 1461.27,-124.61 1464.77,-114.61 1457.77,-114.61"/>
</g>
<!-- FourtyTwoStrategy -->
<g id="node8" class="node">
<title>FourtyTwoStrategy</title>
<ellipse fill="#fdb462" stroke="black" cx="871" cy="-66.8" rx="86.85" ry="18"/>
<text text-anchor="middle" x="871" y="-62.6" font-family="Times,serif" font-size="14.00">FourtyTwoStrategy</text>
</g>
<!-- FourtyTwoStrategy&#45;&gt;AuthModule -->
<g id="edge8" class="edge">
<title>FourtyTwoStrategy&#45;&gt;AuthModule</title>
<path fill="none" stroke="black" d="M871,-84.94C871,-91.26 871,-96.8 871,-96.8 871,-96.8 1448.76,-96.8 1448.76,-96.8 1448.76,-96.8 1448.76,-114.62 1448.76,-114.62"/>
<polygon fill="black" stroke="black" points="1445.26,-114.62 1448.76,-124.62 1452.26,-114.62 1445.26,-114.62"/>
</g>
<!-- JwtRefreshStrategy -->
<g id="node9" class="node">
<title>JwtRefreshStrategy</title>
<ellipse fill="#fdb462" stroke="black" cx="680" cy="-66.8" rx="86.83" ry="18"/>
<text text-anchor="middle" x="680" y="-62.6" font-family="Times,serif" font-size="14.00">JwtRefreshStrategy</text>
</g>
<!-- JwtRefreshStrategy&#45;&gt;AuthModule -->
<g id="edge9" class="edge">
<title>JwtRefreshStrategy&#45;&gt;AuthModule</title>
<path fill="none" stroke="black" d="M680,-84.8C680,-93.8 680,-102.8 680,-102.8 680,-102.8 1436.25,-102.8 1436.25,-102.8 1436.25,-102.8 1436.25,-114.67 1436.25,-114.67"/>
<polygon fill="black" stroke="black" points="1432.75,-114.67 1436.25,-124.67 1439.75,-114.67 1432.75,-114.67"/>
</g>
<!-- JwtStrategy -->
<g id="node10" class="node">
<title>JwtStrategy</title>
<ellipse fill="#fdb462" stroke="black" cx="519" cy="-66.8" rx="56.77" ry="18"/>
<text text-anchor="middle" x="519" y="-62.6" font-family="Times,serif" font-size="14.00">JwtStrategy</text>
</g>
<!-- JwtStrategy&#45;&gt;AuthModule -->
<g id="edge10" class="edge">
<title>JwtStrategy&#45;&gt;AuthModule</title>
<path fill="none" stroke="black" d="M519,-84.9C519,-95.89 519,-107.8 519,-107.8 519,-107.8 1423.75,-107.8 1423.75,-107.8 1423.75,-107.8 1423.75,-114.48 1423.75,-114.48"/>
<polygon fill="black" stroke="black" points="1420.25,-114.48 1423.75,-124.48 1427.25,-114.48 1420.25,-114.48"/>
</g>
<!-- JwtTwoFactorStrategy -->
<g id="node11" class="node">
<title>JwtTwoFactorStrategy</title>
<ellipse fill="#fdb462" stroke="black" cx="345" cy="-66.8" rx="99.01" ry="18"/>
<text text-anchor="middle" x="345" y="-62.6" font-family="Times,serif" font-size="14.00">JwtTwoFactorStrategy</text>
</g>
<!-- JwtTwoFactorStrategy&#45;&gt;AuthModule -->
<g id="edge11" class="edge">
<title>JwtTwoFactorStrategy&#45;&gt;AuthModule</title>
<path fill="none" stroke="black" d="M345,-84.84C345,-98.09 345,-113.8 345,-113.8 345,-113.8 1411.24,-113.8 1411.24,-113.8 1411.24,-113.8 1411.24,-114.88 1411.24,-114.88"/>
<polygon fill="black" stroke="black" points="1407.74,-114.6 1411.24,-124.6 1414.74,-114.6 1407.74,-114.6"/>
</g>
<!-- TwoFactorAuthService -->
<g id="node12" class="node">
<title>TwoFactorAuthService</title>
<ellipse fill="#fdb462" stroke="black" cx="126" cy="-66.8" rx="101.86" ry="18"/>
<text text-anchor="middle" x="126" y="-62.6" font-family="Times,serif" font-size="14.00">TwoFactorAuthService</text>
</g>
<!-- TwoFactorAuthService&#45;&gt;AuthModule -->
<g id="edge12" class="edge">
<title>TwoFactorAuthService&#45;&gt;AuthModule</title>
<path fill="none" stroke="black" d="M126,-85.04C126,-100.37 126,-119.8 126,-119.8 126,-119.8 1398.73,-119.8 1398.73,-119.8 1398.73,-119.8 1398.73,-120.29 1398.73,-120.29"/>
<polygon fill="black" stroke="black" points="1395.23,-114.68 1398.73,-124.68 1402.23,-114.68 1395.23,-114.68"/>
</g>
<!-- UsersService -->
<g id="node14" class="node">
<title>UsersService</title>
<ellipse fill="#fdb462" stroke="black" cx="1708" cy="-142.8" rx="61.97" ry="18"/>
<text text-anchor="middle" x="1708" y="-138.6" font-family="Times,serif" font-size="14.00">UsersService</text>
</g>
<!-- UsersService&#45;&gt;UsersModule -->
<g id="edge14" class="edge">
<title>UsersService&#45;&gt;UsersModule</title>
<path fill="none" stroke="black" d="M1649.46,-136.8C1616.89,-136.8 1582.86,-136.8 1582.86,-136.8 1582.86,-136.8 1582.86,-94.83 1582.86,-94.83"/>
<polygon fill="black" stroke="black" points="1586.36,-94.83 1582.86,-84.83 1579.36,-94.83 1586.36,-94.83"/>
</g>
</g>
</svg>
